<svg width="56" height="56" viewBox="0 0 56 56" fill="none" xmlns="http://www.w3.org/2000/svg">
<g clip-path="url(#clip0)">
<path d="M30.59 14.93C30.8 15.36 31.29 15.58 31.75 15.45C33.35 15.02 35.07 14.94 36.72 15.23C41.32 16.05 44.98 19.7 45.81 24.3C45.91 24.84 46.43 25.21 46.97 25.1C47.51 25 47.87 24.48 47.78 23.94C46.8 18.53 42.5 14.24 37.08 13.27C35.4 12.97 33.66 12.99 32 13.34C30.07 10.02 26.57 8 22.69 8C16.97 8 12.28 12.48 11.93 18.11C5.52 17.41 0 22.51 0 28.83C0 34.77 4.84 39.61 10.78 39.61H26.61C27.16 39.61 27.61 39.16 27.61 38.61C27.61 38.06 27.16 37.61 26.61 37.61H10.78C5.94 37.61 2 33.67 2 28.83C2 23.35 7.1 19.05 12.71 20.26C12.72 20.26 12.73 20.26 12.74 20.26C12.77 20.28 12.8 20.31 12.84 20.33C13.73 20.7 14.3 21.57 14.3 22.53C14.3 23.08 14.75 23.53 15.3 23.53C15.85 23.53 16.3 23.08 16.3 22.53C16.3 20.88 15.37 19.39 13.93 18.65C13.99 13.86 17.9 10 22.69 10C26.07 10 29.1 11.89 30.59 14.93Z" fill="#3097F5"/>
<path d="M56 36.65C56 35.45 55.46 34.38 54.62 33.65C55.46 32.92 56 31.85 56 30.65C56 28.44 54.21 26.65 52 26.65H34C31.79 26.65 30 28.44 30 30.65C30 31.85 30.54 32.92 31.38 33.65C30.54 34.38 30 35.45 30 36.65C30 37.85 30.54 38.92 31.38 39.65C30.54 40.38 30 41.45 30 42.65C30 44.86 31.79 46.65 34 46.65H52C54.21 46.65 56 44.86 56 42.65C56 41.45 55.46 40.38 54.62 39.65C55.46 38.91 56 37.85 56 36.65ZM32 30.65C32 29.55 32.9 28.65 34 28.65H52C53.1 28.65 54 29.55 54 30.65C54 31.75 53.1 32.65 52 32.65H34C32.9 32.65 32 31.75 32 30.65ZM54 42.65C54 43.75 53.1 44.65 52 44.65H34C32.9 44.65 32 43.75 32 42.65C32 41.55 32.9 40.65 34 40.65H52C53.1 40.65 54 41.54 54 42.65ZM34 38.65C32.9 38.65 32 37.75 32 36.65C32 35.55 32.9 34.65 34 34.65H52C53.1 34.65 54 35.55 54 36.65C54 37.75 53.1 38.65 52 38.65H34Z" fill="#ADD8FF"/>
<path d="M38.98 35.64H36.44C35.89 35.64 35.44 36.09 35.44 36.64C35.44 37.19 35.89 37.64 36.44 37.64H38.98C39.53 37.64 39.98 37.19 39.98 36.64C39.98 36.09 39.54 35.64 38.98 35.64Z" fill="#3097F5"/>
<path d="M38.98 29.65H36.44C35.89 29.65 35.44 30.1 35.44 30.65C35.44 31.2 35.89 31.65 36.44 31.65H38.98C39.53 31.65 39.98 31.2 39.98 30.65C39.98 30.09 39.54 29.65 38.98 29.65Z" fill="#3097F5"/>
<path d="M36.45 43.65H38.99C39.54 43.65 39.99 43.2 39.99 42.65C39.99 42.1 39.54 41.65 38.99 41.65H36.45C35.9 41.65 35.45 42.1 35.45 42.65C35.45 43.2 35.89 43.65 36.45 43.65Z" fill="#3097F5"/>
<path d="M19.69 13.52C19.3 13.91 19.3 14.54 19.69 14.93C20.08 15.32 20.71 15.32 21.1 14.93C21.97 14.06 23.38 14.06 24.25 14.93C24.45 15.13 24.7 15.22 24.96 15.22C25.22 15.22 25.47 15.12 25.67 14.93C26.06 14.54 26.06 13.91 25.67 13.52C24.03 11.87 21.34 11.87 19.69 13.52Z" fill="#3097F5"/>
<path d="M9.64998 34.26C10.2 34.26 10.65 33.81 10.65 33.26C10.65 32.71 10.2 32.26 9.64998 32.26C8.41998 32.26 7.41998 31.26 7.41998 30.03C7.41998 29.75 7.30998 29.5 7.12998 29.32C6.94998 29.14 6.69998 29.03 6.41998 29.03C5.86998 29.03 5.41998 29.48 5.41998 30.03C5.41998 32.36 7.31998 34.26 9.64998 34.26Z" fill="#3097F5"/>
</g>
<defs>
<clipPath id="clip0">
<rect width="56" height="38.65" fill="white" transform="translate(0 8)"/>
</clipPath>
</defs>
</svg>
