<svg width="56" height="56" viewBox="0 0 56 56" fill="none" xmlns="http://www.w3.org/2000/svg">
<g clip-path="url(#clip0)">
<path d="M2 28.55C2 24.99 8.83 21.55 18.62 20.18C19.17 20.1 19.55 19.6 19.47 19.05C19.39 18.5 18.89 18.12 18.34 18.2C7.2 19.75 0 23.82 0 28.55C0 30.09 0.72 31.56 2.15 32.91C2.34 33.09 2.59 33.18 2.84 33.18C3.1 33.18 3.37 33.08 3.57 32.87C3.95 32.47 3.93 31.84 3.53 31.46C2.51 30.5 2 29.52 2 28.55Z" fill="#3097F5"/>
<path d="M30.95 37.49C28.65 37.58 26.23 37.57 23.91 37.43C23.38 37.41 22.89 37.82 22.86 38.37C22.83 38.92 23.25 39.39 23.8 39.42C25.18 39.5 26.59 39.54 28 39.54C29.03 39.54 30.04 39.52 31.03 39.48C31.58 39.46 32.01 38.99 31.99 38.44C31.97 37.9 31.48 37.44 30.95 37.49Z" fill="#3097F5"/>
<path d="M37.66 18.2C37.11 18.12 36.61 18.5 36.53 19.05C36.45 19.6 36.83 20.1 37.38 20.18C47.17 21.55 54 24.99 54 28.55C54 30.12 52.62 31.45 51.47 32.29C51.02 32.61 50.92 33.24 51.25 33.69C51.45 33.96 51.75 34.1 52.06 34.1C52.26 34.1 52.47 34.04 52.65 33.91C54.85 32.32 56.01 30.47 56.01 28.55C56 23.82 48.8 19.75 37.66 18.2Z" fill="#3097F5"/>
<path d="M28.02 12C24.16 12 21.02 15.14 21.02 19C21.02 22.86 24.16 26 28.02 26C31.88 26 35.02 22.86 35.02 19C35.02 15.14 31.88 12 28.02 12ZM28.02 24C25.26 24 23.02 21.76 23.02 19C23.02 16.24 25.26 14 28.02 14C30.78 14 33.02 16.24 33.02 19C33.02 21.76 30.77 24 28.02 24Z" fill="#ADD8FF"/>
<path d="M42 29.55C38.14 29.55 35 32.69 35 36.55C35 40.41 38.14 43.55 42 43.55C45.86 43.55 49 40.41 49 36.55C49 32.69 45.86 29.55 42 29.55ZM42 41.55C39.24 41.55 37 39.31 37 36.55C37 33.79 39.24 31.55 42 31.55C44.76 31.55 47 33.79 47 36.55C47 39.31 44.76 41.55 42 41.55Z" fill="#ADD8FF"/>
<path d="M14 29.55C10.14 29.55 7 32.69 7 36.55C7 40.41 10.14 43.55 14 43.55C17.86 43.55 21 40.41 21 36.55C21 32.69 17.86 29.55 14 29.55ZM14 41.55C11.24 41.55 9 39.31 9 36.55C9 33.79 11.24 31.55 14 31.55C16.76 31.55 19 33.79 19 36.55C19 39.31 16.76 41.55 14 41.55Z" fill="#ADD8FF"/>
</g>
<defs>
<clipPath id="clip0">
<rect width="56" height="31.55" fill="white" transform="translate(0 12)"/>
</clipPath>
</defs>
</svg>
