<svg width="160" height="143" viewBox="0 0 160 143" fill="none" xmlns="http://www.w3.org/2000/svg">
<rect x="1.07758" y="1.14697" width="157.66" height="141.353" rx="9.5" fill="black" stroke="#F1F1F1"/>
<path d="M73.984 71.0098V74.9276H78.9554V77.1724H73.984V83.589H70.7262V68.7651H79.865V71.0098H73.984Z" fill="white"/>
<path d="M87.6557 71.7934C88.3327 71.7934 88.8263 71.9416 89.1365 72.2381C89.4468 72.5205 89.6019 72.9793 89.6019 73.6146C89.6019 73.8546 89.5667 74.0946 89.4962 74.3346C89.4397 74.5605 89.3551 74.737 89.2423 74.8641C89.0731 74.7652 88.8827 74.6947 88.6711 74.6523C88.4596 74.6099 88.1564 74.5888 87.7615 74.5888C86.8448 74.5888 86.1608 74.8711 85.7095 75.4359C85.2723 76.0006 85.0537 76.8618 85.0537 78.0195V83.589H81.9228V71.9416H85.0537V73.4876C85.3357 72.937 85.7024 72.5205 86.1537 72.2381C86.605 71.9416 87.1057 71.7934 87.6557 71.7934Z" fill="white"/>
<path d="M101.5 77.003C101.5 77.2006 101.465 77.6453 101.394 78.3371H93.9054C93.9759 79.4101 94.2298 80.243 94.667 80.836C95.1183 81.429 95.7036 81.7254 96.4228 81.7254C96.7472 81.7254 97.0152 81.6831 97.2267 81.5984C97.4523 81.5137 97.678 81.3654 97.9036 81.1537C98.1434 80.9278 98.4537 80.5678 98.8345 80.0736C98.905 79.9607 99.0531 79.9042 99.2787 79.9042C99.5185 79.9042 99.8076 79.9889 100.146 80.1583C100.499 80.3136 100.872 80.5395 101.267 80.836C100.351 82.8125 98.7357 83.8008 96.4228 83.8008C94.6458 83.8008 93.2496 83.2643 92.2342 82.1913C91.2188 81.1042 90.7111 79.6219 90.7111 77.7442C90.7111 76.5159 90.9367 75.45 91.388 74.5464C91.8534 73.6429 92.5092 72.9511 93.3554 72.4711C94.2157 71.9769 95.2311 71.7299 96.4017 71.7299C98.0235 71.7299 99.2787 72.1887 100.167 73.1064C101.056 74.024 101.5 75.3229 101.5 77.003ZM98.3267 76.5582C98.3267 74.6664 97.6639 73.7205 96.3382 73.7205C95.6613 73.7205 95.1183 73.9605 94.7093 74.4405C94.3003 74.9205 94.0465 75.6264 93.9477 76.5582H98.3267Z" fill="white"/>
<path d="M107.319 83.8008C105.937 83.8008 104.844 83.589 104.04 83.1655C103.25 82.7419 102.855 82.1984 102.855 81.5348C102.855 81.1395 102.989 80.8078 103.257 80.5395C103.539 80.2572 103.941 80.1019 104.463 80.0736C104.759 80.6384 105.14 81.0619 105.606 81.3443C106.085 81.6266 106.684 81.7678 107.404 81.7678C108.645 81.7678 109.265 81.3019 109.265 80.3701C109.265 79.9889 109.089 79.6995 108.736 79.5019C108.384 79.3042 107.806 79.0713 107.002 78.803C106.184 78.5348 105.507 78.2736 104.971 78.0195C104.449 77.7653 103.998 77.3983 103.617 76.9182C103.236 76.4241 103.046 75.7888 103.046 75.0123C103.046 74.3488 103.25 73.7699 103.659 73.2758C104.082 72.7675 104.632 72.3864 105.309 72.1322C106 71.864 106.748 71.7299 107.552 71.7299C108.581 71.7299 109.484 71.9275 110.26 72.3228C111.035 72.7181 111.642 73.2476 112.079 73.9111C111.896 74.2641 111.642 74.5747 111.317 74.8429C111.007 75.097 110.725 75.2241 110.471 75.2241C110.33 75.2241 110.21 75.2029 110.112 75.1606C110.013 75.1041 109.914 75.0194 109.815 74.9064C109.181 74.1158 108.454 73.7205 107.636 73.7205C107.101 73.7205 106.684 73.8264 106.388 74.0382C106.106 74.2358 105.965 74.5394 105.965 74.9488C105.965 75.3864 106.156 75.7182 106.536 75.9441C106.931 76.17 107.545 76.4029 108.377 76.6429C109.167 76.8547 109.815 77.0806 110.323 77.3206C110.845 77.5465 111.282 77.8924 111.635 78.3583C112.001 78.8101 112.185 79.4101 112.185 80.1583C112.185 81.3301 111.762 82.2337 110.915 82.869C110.083 83.4902 108.885 83.8008 107.319 83.8008Z" fill="white"/>
<path d="M119.29 83.8008C115.398 83.8008 113.451 81.7678 113.451 77.7018C113.451 75.8382 113.952 74.377 114.953 73.3181C115.955 72.2593 117.337 71.7299 119.1 71.7299C120.482 71.7299 121.617 72.0758 122.506 72.7675C123.408 73.4452 123.937 74.3699 124.092 75.5417C123.274 76.0359 122.597 76.2829 122.061 76.2829C121.836 76.2829 121.645 76.2123 121.49 76.0712C121.349 75.93 121.229 75.7041 121.131 75.3935C120.919 74.8005 120.658 74.3841 120.348 74.1441C120.038 73.8899 119.622 73.7629 119.1 73.7629C118.31 73.7629 117.697 74.1017 117.259 74.7794C116.836 75.457 116.625 76.4312 116.625 77.7018C116.625 79.0712 116.836 80.0807 117.259 80.7301C117.697 81.3654 118.373 81.6831 119.29 81.6831C119.925 81.6831 120.425 81.4713 120.792 81.0478C121.159 80.6101 121.434 79.9183 121.617 78.9724C122.393 78.9724 122.95 79.1136 123.288 79.396C123.627 79.6783 123.796 80.1372 123.796 80.7725C123.796 81.309 123.585 81.8102 123.161 82.276C122.752 82.7419 122.202 83.1161 121.511 83.3984C120.82 83.6667 120.08 83.8008 119.29 83.8008Z" fill="white"/>
<path d="M131.034 83.8008C129.328 83.8008 128.002 83.2714 127.057 82.2125C126.126 81.1537 125.661 79.6642 125.661 77.7442C125.661 75.8241 126.126 74.3417 127.057 73.297C128.002 72.2522 129.328 71.7299 131.034 71.7299C132.741 71.7299 134.059 72.2522 134.99 73.297C135.935 74.3417 136.407 75.8241 136.407 77.7442C136.407 79.6642 135.935 81.1537 134.99 82.2125C134.059 83.2714 132.741 83.8008 131.034 83.8008ZM131.034 81.7678C131.81 81.7678 132.367 81.4501 132.705 80.8148C133.058 80.1795 133.234 79.156 133.234 77.7442C133.234 76.3465 133.058 75.337 132.705 74.7158C132.367 74.0805 131.81 73.7629 131.034 73.7629C130.258 73.7629 129.694 74.0735 129.342 74.6947C129.003 75.3158 128.834 76.3323 128.834 77.7442C128.834 79.156 129.003 80.1795 129.342 80.8148C129.694 81.4501 130.258 81.7678 131.034 81.7678Z" fill="white"/>
<g clip-path="url(#clip0)">
<path d="M59.3406 71.8234C59.3406 82.2183 50.9206 90.6434 40.5365 90.6434C36.4814 90.6434 32.7255 89.3573 29.6525 87.1726C29.1491 86.8132 28.6634 86.4291 28.1952 86.0239C24.2351 82.5742 21.7324 77.4895 21.7324 71.8234C21.7324 61.425 30.1524 52.9999 40.5365 52.9999C50.9206 52.9999 59.3406 61.425 59.3406 71.8234Z" fill="white"/>
<path d="M43.0884 69.6497C43.0145 69.4877 42.8596 69.3502 42.6308 69.2375C42.3985 69.1247 42.1239 69.0472 41.8036 69.0049C41.4833 68.9626 41.1841 68.9978 40.9025 69.1106C40.7969 69.1494 40.6279 69.2798 40.3885 69.4982C40.1457 69.7202 39.857 70.0127 39.5191 70.3756C39.1812 70.7386 38.794 71.1614 38.361 71.6477C37.928 72.1305 37.4739 72.6591 36.9952 73.2264C36.513 73.7972 36.0166 74.4033 35.5062 75.0447C34.9923 75.6825 34.4784 76.3379 33.9609 77.0074C33.2745 77.1554 32.5881 77.3281 31.9087 77.5148C31.2259 77.7016 30.5782 77.906 29.9692 78.1209C29.3567 78.3394 28.8005 78.5649 28.2972 78.801C27.7938 79.0371 27.3855 79.2802 27.0757 79.534C26.9349 79.6467 26.8082 79.7877 26.6955 79.9568C26.5829 80.126 26.4984 80.2986 26.4421 80.4678C26.3858 80.6369 26.3647 80.7955 26.3787 80.947C26.3928 81.0985 26.4562 81.2113 26.5688 81.2853C26.6815 81.3593 26.8469 81.3875 27.0687 81.3699C27.2904 81.3522 27.5791 81.2536 27.9346 81.0739C28.3676 80.8589 28.9554 80.6087 29.6911 80.3303C30.4303 80.0555 31.2435 79.7701 32.127 79.4776C31.6483 80.1471 31.1871 80.8025 30.7506 81.4474C30.3142 82.0922 29.9199 82.7089 29.5714 83.2903C29.2265 83.8753 28.9237 84.4179 28.6703 84.9218C28.4661 85.3271 28.3077 85.6935 28.1951 86.0248C28.6633 86.43 29.149 86.8141 29.6524 87.1735C29.6665 87.1453 29.6735 87.1171 29.6841 87.089C29.8284 86.6661 30.0783 86.1375 30.4409 85.5068C30.8034 84.8795 31.2399 84.1854 31.7539 83.4313C32.2643 82.6807 32.8345 81.8843 33.4611 81.0527C34.0841 80.2176 34.7318 79.3789 35.4006 78.5332C36.2842 78.3042 37.1043 78.135 37.8611 78.0152C38.618 77.8989 39.2269 77.8637 39.6881 77.9095C39.9239 77.9377 40.0964 77.8778 40.202 77.7263C40.3111 77.5747 40.3533 77.4021 40.3217 77.2047C40.2935 77.0074 40.1949 76.8171 40.0189 76.6374C39.8465 76.4612 39.5895 76.3626 39.2516 76.3414C38.6954 76.3132 37.9632 76.3555 37.0515 76.4683C37.7168 75.6508 38.368 74.8755 39.0052 74.1461C39.6388 73.4167 40.2161 72.7648 40.7405 72.1904C41.2615 71.616 41.7086 71.1438 42.0782 70.7703C42.4513 70.4003 42.7118 70.1713 42.8631 70.0867C43.0884 69.9528 43.1623 69.8083 43.0884 69.6497ZM57.1827 67.162C57.144 67.0034 57.0525 66.8272 56.9081 66.6334C56.7603 66.4396 56.5843 66.2634 56.3731 66.1013C56.1584 65.9427 55.9612 65.8582 55.7712 65.8476C54.7926 65.8123 53.7084 65.7983 52.5116 65.8123C51.3183 65.8264 50.0616 65.8723 48.7451 65.9463C47.4286 66.0238 46.0699 66.1295 44.6689 66.2669C43.2679 66.4008 41.8705 66.577 40.4801 66.7884C39.0861 66.9999 37.7168 67.2465 36.3722 67.5284C35.0275 67.8103 33.7497 68.138 32.5353 68.5045C31.3209 68.871 30.2015 69.2833 29.1701 69.7378C28.1423 70.1959 27.2447 70.6998 26.4843 71.2495C25.7205 71.8028 25.1115 72.4018 24.6574 73.0502C24.1998 73.7021 23.9429 74.4033 23.8865 75.1574C23.8584 75.5521 23.9182 75.915 24.0626 76.2427C24.2104 76.574 24.4005 76.8453 24.6434 77.0638C24.8827 77.2787 25.1538 77.4338 25.453 77.5219C25.7557 77.61 26.0443 77.617 26.3295 77.543C26.6568 77.4479 26.8293 77.321 26.8434 77.1554C26.8575 76.9898 26.7519 76.8524 26.5266 76.7361C26.4139 76.6797 26.3048 76.6022 26.1992 76.4965C26.0971 76.3943 26.0162 76.2709 25.9599 76.1229C25.9035 75.9785 25.8754 75.8199 25.8754 75.6508C25.8754 75.4816 25.9247 75.3019 26.0162 75.1151C26.4139 74.3399 27.0652 73.6105 27.9733 72.9233C28.878 72.2362 30.015 71.6054 31.3772 71.0311C32.743 70.4567 34.32 69.9457 36.1117 69.4912C37.9034 69.0401 39.8852 68.656 42.05 68.3424C44.2184 68.0253 46.5557 67.7892 49.0619 67.6271C51.5682 67.4685 54.2188 67.3945 57.0137 67.4016C57.1651 67.4016 57.2214 67.324 57.1827 67.162Z" fill="black"/>
</g>
<defs>
<clipPath id="clip0">
<rect width="37.6082" height="37.6435" fill="white" transform="translate(21.7324 52.9999)"/>
</clipPath>
</defs>
</svg>
