<svg width="159" height="143" viewBox="0 0 159 143" fill="none" xmlns="http://www.w3.org/2000/svg">
<rect x="0.340088" width="158.66" height="142.353" rx="10" fill="#2148D1"/>
<path d="M48.6704 68.3394L42.1168 64.5287L46.4733 62.013L47.7791 61.2555L53.0082 58.2354L63.7822 64.5061L63.8047 72.0944L53.027 65.8238L48.6742 68.3394H48.6704Z" fill="white"/>
<path d="M46.9508 74.2329L52.8952 70.7979L52.9178 78.387L46.9734 81.8212L26.1964 69.7362V62.1591L46.9508 74.2329Z" fill="white"/>
<path d="M72.1994 78.8241V63.3136H75.1743V69.4868C75.9938 68.6802 77.0129 68.277 78.2318 68.277C80.8899 68.277 82.219 69.9521 82.219 73.3024V78.8241H79.2441V73.2817C79.2441 72.5027 79.0788 71.9064 78.7483 71.4928C78.4246 71.0723 77.9598 70.862 77.3538 70.862C76.7065 70.862 76.1797 71.0895 75.7734 71.5445C75.374 71.9926 75.1743 72.5751 75.1743 73.292V78.8241H72.1994Z" fill="white"/>
<path d="M82.9172 73.6539C82.9172 72.6199 83.1548 71.6996 83.63 70.8931C84.112 70.0796 84.7662 69.442 85.5926 68.9801C86.4258 68.5113 87.3727 68.277 88.4331 68.277C89.4936 68.277 90.4371 68.5113 91.2634 68.9801C92.0898 69.442 92.7405 70.0796 93.2157 70.8931C93.6977 71.6996 93.9387 72.6199 93.9387 73.6539C93.9387 74.688 93.6977 75.6117 93.2157 76.4252C92.7405 77.2317 92.0898 77.8694 91.2634 78.3381C90.4371 78.8 89.4936 79.0309 88.4331 79.0309C87.3727 79.0309 86.4258 78.8 85.5926 78.3381C84.7662 77.8694 84.112 77.2317 83.63 76.4252C83.1548 75.6117 82.9172 74.688 82.9172 73.6539ZM85.8095 73.6539C85.8095 74.4536 86.0574 75.1188 86.5532 75.6496C87.049 76.1804 87.6757 76.4458 88.4331 76.4458C89.1906 76.4458 89.8173 76.1804 90.3131 75.6496C90.8089 75.1188 91.0568 74.4536 91.0568 73.6539C91.0568 72.8543 90.8089 72.1891 90.3131 71.6583C89.8173 71.1274 89.1906 70.862 88.4331 70.862C87.6757 70.862 87.049 71.1274 86.5532 71.6583C86.0574 72.1891 85.8095 72.8543 85.8095 73.6539Z" fill="white"/>
<path d="M97.8288 62.9V78.8241H94.8539V62.9H97.8288Z" fill="white"/>
<path d="M102.432 62.9V78.8241H99.4567V62.9H102.432Z" fill="white"/>
<path d="M103.336 73.6539C103.336 72.6199 103.574 71.6996 104.049 70.8931C104.531 70.0796 105.185 69.442 106.012 68.9801C106.845 68.5113 107.792 68.277 108.852 68.277C109.913 68.277 110.856 68.5113 111.683 68.9801C112.509 69.442 113.16 70.0796 113.635 70.8931C114.117 71.6996 114.358 72.6199 114.358 73.6539C114.358 74.688 114.117 75.6117 113.635 76.4252C113.16 77.2317 112.509 77.8694 111.683 78.3381C110.856 78.8 109.913 79.0309 108.852 79.0309C107.792 79.0309 106.845 78.8 106.012 78.3381C105.185 77.8694 104.531 77.2317 104.049 76.4252C103.574 75.6117 103.336 74.688 103.336 73.6539ZM106.229 73.6539C106.229 74.4536 106.477 75.1188 106.972 75.6496C107.468 76.1804 108.095 76.4458 108.852 76.4458C109.61 76.4458 110.236 76.1804 110.732 75.6496C111.228 75.1188 111.476 74.4536 111.476 73.6539C111.476 72.8543 111.228 72.1891 110.732 71.6583C110.236 71.1274 109.61 70.862 108.852 70.862C108.095 70.862 107.468 71.1274 106.972 71.6583C106.477 72.1891 106.229 72.8543 106.229 73.6539Z" fill="white"/>
<path d="M114.24 68.4838H117.37L119.054 73.8504C119.136 74.1193 119.212 74.3743 119.281 74.6156C119.357 74.8569 119.426 75.0878 119.488 75.3084C119.543 75.0878 119.601 74.8569 119.663 74.6156C119.732 74.3743 119.804 74.1193 119.88 73.8504L121.564 68.4838H124.528L126.212 73.8504C126.295 74.1193 126.37 74.3743 126.439 74.6156C126.515 74.8569 126.584 75.0913 126.646 75.3187C126.701 75.0913 126.759 74.8569 126.821 74.6156C126.89 74.3743 126.963 74.1193 127.038 73.8504L128.722 68.4838H131.666L128.206 78.8241H125.262C124.862 77.6109 124.48 76.4183 124.115 75.2464C123.757 74.0745 123.42 72.8922 123.103 71.6996C122.807 72.906 122.466 74.102 122.08 75.2877C121.695 76.4734 121.278 77.6522 120.83 78.8241H117.701L114.24 68.4838Z" fill="white"/>
</svg>
