<svg width="44" height="56" viewBox="0 0 44 56" fill="none" xmlns="http://www.w3.org/2000/svg">
<path d="M39.39 45.87H34.39C33.84 45.87 33.39 46.32 33.39 46.87C33.39 47.42 33.84 47.87 34.39 47.87H38.39V50C38.39 51.89 37.07 53.52 35.23 53.91H33.58C33.46 53.88 33.34 53.85 33.23 53.81C33.13 53.78 33.03 53.76 32.93 53.72C32.81 53.67 32.7 53.61 32.59 53.55C32.5 53.5 32.41 53.47 32.32 53.41C32.21 53.34 32.11 53.26 32.01 53.19C31.93 53.13 31.85 53.08 31.77 53.01C31.67 52.92 31.59 52.83 31.5 52.73C31.44 52.66 31.36 52.6 31.31 52.53C31.22 52.42 31.15 52.31 31.08 52.19C31.03 52.12 30.98 52.05 30.93 51.97C30.86 51.85 30.81 51.71 30.75 51.58C30.72 51.5 30.67 51.43 30.65 51.35C30.6 51.2 30.56 51.05 30.53 50.89C30.51 50.82 30.49 50.76 30.48 50.69C30.41 50.47 30.39 50.24 30.39 50V22.22C30.39 21.67 29.94 21.22 29.39 21.22C28.84 21.22 28.39 21.67 28.39 22.22V50C28.39 50.36 28.42 50.72 28.49 51.07C28.51 51.19 28.55 51.3 28.58 51.41C28.64 51.64 28.69 51.86 28.77 52.08C28.82 52.21 28.89 52.33 28.95 52.46C29.04 52.65 29.12 52.84 29.22 53.02C29.29 53.15 29.39 53.26 29.47 53.38C29.58 53.54 29.69 53.71 29.82 53.86C29.83 53.87 29.84 53.89 29.85 53.91H5.55001C3.71001 53.52 2.39001 51.89 2.39001 50V16.15C2.39001 15.99 2.52001 15.86 2.68001 15.86H19.77C20.32 15.86 20.77 15.41 20.77 14.86C20.77 14.31 20.32 13.86 19.77 13.86H2.68001C1.42001 13.86 0.390015 14.89 0.390015 16.15V50C0.390015 52.88 2.44001 55.35 5.26001 55.89C5.32001 55.9 5.39001 55.91 5.45001 55.91H33.45C33.76 55.96 34.07 56 34.39 56C34.77 56 35.14 55.96 35.52 55.89C38.34 55.35 40.39 52.87 40.39 50V46.87C40.39 46.32 39.94 45.87 39.39 45.87Z" fill="#3097F5"/>
<path d="M43.31 0.289998C42.92 -0.100002 42.29 -0.100002 41.9 0.289998L41.19 0.999998C40.43 0.249998 39.11 0.249998 38.35 1.01L37.29 2.08C35.67 1.1 33.53 1.29 32.13 2.69L28.56 6.26C28.17 6.65 28.17 7.28 28.56 7.67C28.76 7.87 29.01 7.96 29.27 7.96C29.53 7.96 29.78 7.86 29.98 7.67L33.55 4.1C34.16 3.49 35.03 3.32 35.8 3.57L27.69 11.68L20.39 18.98C20.38 18.99 20.38 19 20.37 19.01C20.29 19.09 20.23 19.18 20.18 19.28L17.95 24.34C17.78 24.72 17.87 25.16 18.16 25.45C18.35 25.64 18.61 25.74 18.87 25.74C19.01 25.74 19.14 25.71 19.27 25.66L24.33 23.43C24.43 23.38 24.52 23.32 24.6 23.24C24.61 23.23 24.62 23.23 24.63 23.22L31.93 15.92L42.6 5.25C42.98 4.87 43.19 4.36 43.19 3.83C43.19 3.3 42.98 2.8 42.61 2.42L43.32 1.71C43.7 1.32 43.7 0.679998 43.31 0.289998ZM28.39 13.8L29.1 14.51L29.81 15.22L27.58 17.45L26.17 16.04L28.39 13.8ZM24.74 17.45L26.15 18.86L23.92 21.09L23.21 20.38L22.5 19.67L24.74 17.45ZM20.81 22.79L21.41 21.42L22.17 22.18L20.81 22.79ZM31.22 13.8L30.51 13.09L29.8 12.38L39.79 2.41L41.18 3.82L31.22 13.8Z" fill="#ADD8FF"/>
<path d="M13.22 23.75H7.60001C7.05001 23.75 6.60001 24.2 6.60001 24.75C6.60001 25.3 7.05001 25.75 7.60001 25.75H13.21C13.76 25.75 14.21 25.3 14.21 24.75C14.22 24.2 13.77 23.75 13.22 23.75Z" fill="#ADD8FF"/>
<path d="M13.8 45.87C13.25 45.87 12.8 46.32 12.8 46.87C12.8 47.42 13.25 47.87 13.8 47.87H21.41C21.96 47.87 22.41 47.42 22.41 46.87C22.41 46.32 21.96 45.87 21.41 45.87H13.8Z" fill="#ADD8FF"/>
<path d="M21.99 32.1H7.60001C7.05001 32.1 6.60001 32.55 6.60001 33.1C6.60001 33.65 7.05001 34.1 7.60001 34.1H21.99C22.54 34.1 22.99 33.65 22.99 33.1C22.99 32.55 22.54 32.1 21.99 32.1Z" fill="#3097F5"/>
<path d="M22.99 39.02C22.99 38.47 22.54 38.02 21.99 38.02H7.60001C7.05001 38.02 6.60001 38.47 6.60001 39.02C6.60001 39.57 7.05001 40.02 7.60001 40.02H21.99C22.54 40.02 22.99 39.58 22.99 39.02Z" fill="#3097F5"/>
</svg>
