<svg width="56" height="56" viewBox="0 0 56 56" fill="none" xmlns="http://www.w3.org/2000/svg">
<g clip-path="url(#clip0)">
<path d="M55 22.6702H50C49.467 22.815 49.1524 23.3645 49.2972 23.8974C49.3903 24.2397 49.6577 24.5071 50 24.6002H55C55.533 24.4553 55.8476 23.9059 55.7027 23.3729C55.6097 23.0306 55.3423 22.7632 55 22.6702Z" fill="#3097F5"/>
<path d="M50 20.8501C50.2575 20.8491 50.5046 20.7488 50.69 20.5701L53.17 18.0001C53.5257 17.6166 53.5257 17.0237 53.17 16.6401C52.785 16.2782 52.1849 16.2782 51.8 16.6401L49.3 19.2101C48.938 19.5951 48.938 20.1952 49.3 20.5801C49.4894 20.7575 49.7405 20.8544 50 20.8501Z" fill="#3097F5"/>
<path d="M50.73 26.7701C50.2528 26.4921 49.6406 26.6536 49.3626 27.1308C49.1787 27.4465 49.1815 27.8372 49.37 28.1501L51.88 30.6201C52.0592 30.8019 52.3047 30.903 52.56 30.9001C53.1106 30.8574 53.5224 30.3764 53.4796 29.8258C53.4631 29.6133 53.3792 29.4116 53.24 29.2501L50.73 26.7701Z" fill="#3097F5"/>
<path d="M45.76 20.3799V14.9099V14.9099C45.7505 14.5751 45.5741 14.2673 45.29 14.0899C44.9997 13.9199 44.6403 13.9199 44.35 14.0899L41.49 15.5199C38.6423 16.9943 35.4867 17.7754 32.28 17.7999H24.81C21.4964 17.8303 18.8349 20.541 18.8652 23.8546C18.8797 25.4354 19.5175 26.9467 20.64 28.0599C21.7799 29.1642 23.303 29.7842 24.89 29.7899H26.66L28.6 35.4799C28.9764 36.5716 30.0053 37.3031 31.16 37.2999H33.72C34.2712 37.2649 34.6897 36.7898 34.6547 36.2386C34.6496 36.1575 34.6345 36.0774 34.61 35.9999L32.13 29.7899H32.44C35.5913 29.7826 38.7007 30.512 41.52 31.9199L44.44 33.3799C44.573 33.448 44.7206 33.4824 44.87 33.4799C45.0499 33.483 45.2269 33.4344 45.38 33.3399C45.6632 33.1582 45.8361 32.8463 45.84 32.5099V27.0399V27.0399C47.3299 26.6097 48.3516 25.2406 48.34 23.6899V23.6899C48.3135 22.135 47.2614 20.7852 45.76 20.3799L45.76 20.3799ZM24.88 27.9099C22.6537 27.9158 20.8337 26.1358 20.79 23.9099V23.9099C20.7747 21.7668 22.4316 19.9827 24.57 19.8399V19.8399C23.9699 21.2132 23.7722 22.7287 24 24.2099C24.2905 25.6094 24.986 26.8926 26 27.8999L24.88 27.9099ZM32.29 35.4099H31.16C30.8314 35.4076 30.5395 35.1997 30.43 34.8899L28.69 29.8099H30.05L32.29 35.4099ZM42.39 30.1899H42.39C39.3392 28.6592 35.9733 27.8613 32.56 27.8599H28.9C27.4005 26.9868 26.3184 25.5439 25.9 23.8599V23.8599C25.6968 22.4357 25.9786 20.9846 26.7 19.7399H32.26H32.26C35.7836 19.7189 39.252 18.8621 42.38 17.2399L43.8 16.4999V21.2099V26.2099V30.9199L42.39 30.1899ZM45.92 24.7999C45.8818 24.8423 45.8381 24.8793 45.79 24.9099V22.5099C46.4584 23.0179 46.5884 23.9714 46.0804 24.6398C46.0374 24.6964 45.9905 24.7499 45.94 24.7999L45.92 24.7999Z" fill="#ADD8FF"/>
<path d="M24.27 34.1401C23.7177 34.1401 23.27 34.5878 23.27 35.1401V42.8001V42.8C23.2645 44.6037 21.8038 46.0646 20.0001 46.0701H5.20006C3.39637 46.0646 1.93555 44.6038 1.93006 42.8001V13.2001L1.93006 13.2001C1.93553 11.3964 3.39632 9.93561 5.20001 9.93009H11.54V9.93009C11.5353 9.97998 11.5353 10.0302 11.54 10.0801V10.0801C11.54 10.6931 12.037 11.1901 12.65 11.1901C13.2631 11.1901 13.76 10.6931 13.76 10.0801V10.0801C13.7647 10.0302 13.7647 9.97998 13.76 9.93009H20.0001C21.8115 9.91351 23.2934 11.3685 23.3099 13.1799C23.31 13.1867 23.31 13.1934 23.3101 13.2001C23.1652 13.733 23.4799 14.2825 24.0128 14.4273C24.5458 14.5722 25.0952 14.2575 25.2401 13.7246C25.2867 13.5529 25.2867 13.3718 25.2401 13.2001V13.2001C25.2346 10.3227 22.8976 7.99457 20.0202 8.00001C20.0135 8.00002 20.0068 8.00005 20.0001 8.00009H5.20003H5.20003C2.32815 8.00009 3.05176e-05 10.3282 3.05176e-05 13.2001C3.05176e-05 13.2001 3.05176e-05 13.2001 3.05176e-05 13.2001V42.8001C3.00839e-05 45.672 2.32815 48.0001 5.20003 48.0001H20C22.8735 48.0001 25.2045 45.6736 25.21 42.8001V35.1101C25.1954 34.592 24.7874 34.171 24.27 34.1401H24.27Z" fill="#3097F5"/>
<path d="M8.39 15.8801C8.90915 15.6917 9.17725 15.1181 8.98883 14.5989C8.88777 14.3205 8.66845 14.1012 8.39 14.0001H6.39C5.85705 13.8553 5.30759 14.1699 5.16275 14.7028C5.01792 15.2358 5.33255 15.7853 5.8655 15.9301C6.03722 15.9768 6.21828 15.9768 6.39 15.9301L8.39 15.8801Z" fill="#3097F5"/>
<path d="M20.79 14.91C20.79 14.3577 20.3423 13.91 19.79 13.91H12.59C12.0571 13.7652 11.5076 14.0798 11.3628 14.6128C11.2179 15.1457 11.5326 15.6952 12.0655 15.84C12.2372 15.8867 12.4183 15.8867 12.59 15.84H19.79H19.79C20.3161 15.8413 20.7532 15.4348 20.79 14.91H20.79Z" fill="#3097F5"/>
<path d="M19 34.11C18.8822 33.7665 18.5875 33.5139 18.23 33.45L14.9 33L13.41 30C13.1329 29.5223 12.521 29.3596 12.0432 29.6368C11.8926 29.7241 11.7674 29.8493 11.68 30L10.19 33L6.86001 33.48C6.32007 33.5961 5.97649 34.1279 6.09259 34.6679C6.12964 34.8401 6.21154 34.9996 6.33001 35.13L8.74001 37.47L8.17001 40.79C8.11667 41.1491 8.26211 41.5089 8.55001 41.73C8.84489 41.934 9.22644 41.9645 9.55001 41.81L12.55 40.24L15.55 41.81C15.6893 41.8814 15.8435 41.919 16 41.92C16.205 41.9166 16.404 41.8502 16.57 41.73C16.8579 41.5089 17.0034 41.1491 16.95 40.79L16.38 37.47L18.79 35.13C19.0455 34.8561 19.1265 34.4625 19 34.11L19 34.11ZM14.64 36.42C14.418 36.6434 14.3143 36.9584 14.36 37.27L14.69 39.16L13 38.27C12.7221 38.1206 12.3879 38.1206 12.11 38.27L10.41 39.16L10.74 37.27C10.7857 36.9584 10.682 36.6434 10.46 36.42L9.08001 35.08L11 34.8C11.3117 34.7515 11.5823 34.5588 11.73 34.28L12.57 32.56L13.42 34.28V34.28C13.5677 34.5588 13.8383 34.7515 14.15 34.8L16.04 35.08L14.64 36.42Z" fill="#ADD8FF"/>
<path d="M8.68999 27.2399C10.5788 27.2399 12.11 25.7087 12.11 23.8199C12.11 21.9311 10.5788 20.3999 8.68999 20.3999C6.80118 20.3999 5.26999 21.9311 5.26999 23.8199C5.26999 25.7087 6.80118 27.2399 8.68999 27.2399ZM8.68999 22.3399C9.51287 22.3344 10.1844 22.997 10.1899 23.8199C10.1954 24.6428 9.53281 25.3143 8.70992 25.3198C7.88703 25.3253 7.21549 24.6627 7.20999 23.8398C7.20994 23.8332 7.20994 23.8265 7.20999 23.8199C7.20999 23.0025 7.87261 22.3399 8.68999 22.3399V22.3399Z" fill="#ADD8FF"/>
</g>
<defs>
<clipPath id="clip0">
<rect width="56" height="40" fill="white" transform="translate(0 8)"/>
</clipPath>
</defs>
</svg>
