<svg width="159" height="143" viewBox="0 0 159 143" fill="none" xmlns="http://www.w3.org/2000/svg">
<rect x="0.288574" y="0.646973" width="158.66" height="142.353" rx="10" fill="#F1D023"/>
<path d="M85.8638 85.3537L83.0714 73.4521V85.3537H80.5117V70.5297H84.7215L87.5562 82.6642V70.5297H90.0736V85.3537H85.8638Z" fill="white"/>
<path d="M93.031 85.3537V70.5297H100.604V72.8168H95.9292V76.5652H100.075V78.8311H95.9292V83.0665H100.604V85.3537H93.031Z" fill="white"/>
<path d="M111.764 75.0192C111.764 76.191 111.588 77.1158 111.235 77.7934C110.883 78.457 110.389 78.9511 109.755 79.2758L112.399 85.3537H109.12L106.878 79.7629H106.031V85.3537H103.133V70.5297C103.542 70.5015 103.972 70.4662 104.424 70.4238C104.804 70.3956 105.22 70.3744 105.672 70.3603C106.137 70.3321 106.588 70.3179 107.026 70.3179C107.942 70.3179 108.704 70.4168 109.31 70.6144C109.917 70.7979 110.403 71.0874 110.77 71.4827C111.137 71.878 111.391 72.3721 111.532 72.9651C111.687 73.5439 111.764 74.2286 111.764 75.0192ZM108.824 75.1675C108.824 74.3345 108.725 73.7416 108.528 73.3886C108.33 73.0357 107.928 72.8592 107.322 72.8592C106.983 72.8592 106.687 72.8804 106.433 72.9227C106.278 72.9509 106.144 72.9721 106.031 72.9862V77.264H107.364C107.801 77.264 108.154 77.0875 108.422 76.7346C108.69 76.3816 108.824 75.8593 108.824 75.1675Z" fill="white"/>
<path d="M120.743 77.8781C120.743 76.7911 120.708 75.9087 120.637 75.231C120.567 74.5392 120.454 74.0027 120.299 73.6216C120.144 73.2263 119.939 72.958 119.685 72.8168C119.432 72.6756 119.114 72.6051 118.733 72.6051C118.353 72.6051 118.035 72.6756 117.781 72.8168C117.528 72.958 117.323 73.2263 117.168 73.6216C117.013 74.0027 116.9 74.5392 116.829 75.231C116.759 75.9087 116.724 76.7911 116.724 77.8781C116.724 78.9511 116.759 79.8335 116.829 80.5253C116.9 81.2171 117.013 81.7677 117.168 82.1771C117.323 82.5865 117.528 82.8759 117.781 83.0454C118.035 83.2007 118.353 83.2783 118.733 83.2783C119.114 83.2783 119.432 83.2007 119.685 83.0454C119.939 82.8759 120.144 82.5865 120.299 82.1771C120.454 81.7677 120.567 81.2171 120.637 80.5253C120.708 79.8335 120.743 78.9511 120.743 77.8781ZM123.684 77.7723C123.684 79.0711 123.62 80.2076 123.493 81.1818C123.38 82.1559 123.141 82.9677 122.774 83.6171C122.421 84.2666 121.921 84.7536 121.272 85.0784C120.623 85.4031 119.777 85.5654 118.733 85.5654C117.69 85.5654 116.844 85.4031 116.195 85.0784C115.546 84.7536 115.038 84.2666 114.672 83.6171C114.319 82.9677 114.079 82.1559 113.952 81.1818C113.84 80.2076 113.783 79.0711 113.783 77.7723C113.783 76.5299 113.847 75.4428 113.974 74.511C114.115 73.5792 114.368 72.8027 114.735 72.1815C115.102 71.5603 115.603 71.0944 116.237 70.7838C116.886 70.4732 117.718 70.3179 118.733 70.3179C119.749 70.3179 120.574 70.4732 121.208 70.7838C121.857 71.0944 122.365 71.5603 122.732 72.1815C123.098 72.8027 123.345 73.5792 123.472 74.511C123.613 75.4428 123.684 76.5299 123.684 77.7723Z" fill="white"/>
<g clip-path="url(#clip0)">
<path d="M69.8924 70.6727C69.8924 73.344 68.875 76.0153 66.8382 78.0522L55.7823 89.1195C53.7475 91.1564 50.4472 91.1564 48.4103 89.1195L37.4838 78.1816C33.3954 74.089 33.2953 67.2918 37.415 63.2347C39.4435 61.2353 42.085 60.2378 44.7244 60.2378C47.393 60.2378 50.0615 61.2562 52.0963 63.2952C56.168 59.2193 62.7665 59.2193 66.8382 63.2952C68.875 65.3342 69.8924 68.0034 69.8924 70.6727Z" fill="#F3223C"/>
<path opacity="0.11" d="M46.142 86.8495C46.142 86.8495 45.1768 85.0881 45.3102 83.2536C45.3102 83.2536 48.1685 91.393 58.4009 86.5636L49.5111 82.3144L46.5632 77.0363L44.3637 78.0506L43.6152 83.12L44.0176 84.8189L46.142 86.8495Z" fill="black"/>
<path opacity="0.11" d="M47.4326 63.5205C47.4326 63.5205 48.8733 66.4048 48.0351 69.3893C47.197 72.3738 45.5855 85.952 56.2098 82.0013C56.2098 82.0013 49.2715 81.4795 50.7142 75.4417C52.1318 69.525 51.596 66.7033 47.4326 63.5205Z" fill="black"/>
<path d="M45.1017 86.4542C45.1017 86.4542 38.9202 81.9797 43.3379 76.2864C49.0483 68.9277 46.6278 63.9899 46.6278 63.9899C46.6278 63.9899 50.983 67.8279 49.7467 73.1163C48.6584 77.7744 50.0553 80.7525 52.3694 81.0572C55.1277 81.4225 58.3592 75.0133 53.2617 67.6067C48.1643 60.2 52.1088 52.9999 52.1088 52.9999C52.1088 52.9999 51.8691 59.3756 59.6789 67.8467C67.8139 76.6725 62.1035 88.274 53.145 87.4121C45.5583 86.6837 45.2706 79.2437 45.2706 79.2437C45.2706 79.2437 43.0482 83.0962 45.1017 86.4542Z" fill="white"/>
<path d="M53.1452 87.4101C45.5585 86.6817 45.2687 79.2458 45.2687 79.2458C45.2687 79.2458 43.0483 83.0963 45.1019 86.4521C45.1019 86.4521 44.5765 86.0723 43.9386 85.392C41.6244 80.3477 46.013 75.5623 46.013 75.5623C45.867 79.6089 48.8775 85.2751 54.6171 83.6097C60.613 81.8691 59.9188 72.0854 54.9652 66.1688C50.6684 61.0369 51.7629 55.0452 52.132 53.5467C52.2675 55.258 53.2161 60.8345 59.677 67.8467C67.812 76.6726 62.1016 88.2741 53.1452 87.4101Z" fill="url(#paint0_linear)"/>
<path opacity="0.11" d="M62.0285 82.8675C62.6081 81.9075 63.0418 80.8369 63.3044 79.6952C63.3378 79.5471 63.3691 79.3989 63.3962 79.2486C63.6234 78.0298 63.6568 76.7379 63.465 75.4168C63.4358 75.2227 63.4024 75.0265 63.3649 74.8324C63.3253 74.6384 63.2836 74.4422 63.2356 74.246C63.1877 74.0498 63.1335 73.8536 63.0751 73.6574C63.0188 73.4613 62.9542 73.2651 62.8854 73.0689C62.8854 73.0668 62.8854 73.0668 62.8854 73.0668C62.7832 72.7725 62.6665 72.4783 62.5393 72.1819C62.4142 71.8876 62.2745 71.5934 62.1224 71.3012C62.1224 71.3012 62.1203 71.3012 62.1203 71.2991C61.9702 71.0048 61.8055 70.7126 61.6282 70.4225C61.5094 70.2264 61.3864 70.0323 61.2551 69.8402C60.9965 69.4541 60.7151 69.0722 60.4086 68.6945C60.1793 68.4085 59.9354 68.1268 59.6768 67.8471C59.3745 67.5174 59.0827 67.1939 58.8054 66.8704C58.7116 66.764 58.6198 66.6554 58.5302 66.549C57.986 65.9104 57.4899 65.2842 57.0354 64.6748C56.9582 64.5726 56.8832 64.4724 56.8102 64.3701C56.7372 64.2699 56.6643 64.1698 56.5934 64.0696C56.5225 63.9694 56.4516 63.8713 56.3828 63.7711C56.314 63.673 56.2473 63.575 56.1785 63.4769C56.1118 63.3788 56.0472 63.2807 55.9825 63.1847C55.8533 62.9906 55.7282 62.7986 55.6073 62.6087C55.6031 62.6024 55.5989 62.5961 55.5947 62.5899C55.478 62.4062 55.3654 62.2246 55.257 62.0452C55.2007 61.9512 55.1465 61.8594 55.0923 61.7676C55.0339 61.6674 54.9735 61.5672 54.9172 61.4691C54.9443 61.3836 54.9568 61.3377 54.9839 61.25C55.4759 61.0162 55.9804 60.8222 56.4954 60.6698C57.2397 62.2267 57.3293 63.433 62.0431 68.1497C65.9292 72.04 66.0064 78.8855 62.0285 82.8675Z" fill="black"/>
</g>
<defs>
<linearGradient id="paint0_linear" x1="53.0029" y1="53.2503" x2="53.5835" y2="89.322" gradientUnits="userSpaceOnUse">
<stop stop-color="#E0E0E0"/>
<stop offset="0.5705" stop-color="#E2E2E2" stop-opacity="0.4295"/>
<stop offset="0.776" stop-color="#E9E9E9" stop-opacity="0.224"/>
<stop offset="0.922" stop-color="#F5F5F5" stop-opacity="0.078"/>
<stop offset="1" stop-color="white" stop-opacity="0"/>
</linearGradient>
<clipPath id="clip0">
<rect width="35.5213" height="37.647" fill="white" transform="translate(34.3712 52.9999)"/>
</clipPath>
</defs>
</svg>
