<svg width="159" height="143" viewBox="0 0 159 143" fill="none" xmlns="http://www.w3.org/2000/svg">
<rect y="0.646973" width="158.66" height="142.353" rx="10" fill="#1C1C7D"/>
<path d="M30.3332 86.2307L30.4261 87.668C30.8944 87.1579 31.4556 86.7581 32.1098 86.4686C32.7709 86.1721 33.4905 86.0239 34.2687 86.0239C35.2741 86.0239 36.1693 86.2583 36.9543 86.7271C37.7393 87.1889 38.3557 87.8266 38.8033 88.64C39.2578 89.4466 39.485 90.3669 39.485 91.4009C39.485 92.4349 39.2578 93.3587 38.8033 94.1721C38.3557 94.9787 37.7393 95.6163 36.9543 96.0851C36.1693 96.547 35.2741 96.7779 34.2687 96.7779C33.5112 96.7779 32.8088 96.64 32.1615 96.3643C31.521 96.0885 30.9667 95.7059 30.4984 95.2165V101.741H28.7941V86.2307H30.3332ZM34.1137 95.2268C34.8092 95.2268 35.429 95.0614 35.973 94.7305C36.517 94.3996 36.944 93.9446 37.2539 93.3656C37.5706 92.7865 37.729 92.1316 37.729 91.4009C37.729 90.6633 37.5706 90.0084 37.2539 89.4362C36.944 88.8572 36.517 88.4022 35.973 88.0713C35.429 87.7404 34.8092 87.575 34.1137 87.575C33.4182 87.575 32.7984 87.7404 32.2544 88.0713C31.7104 88.4022 31.28 88.8572 30.9632 89.4362C30.6534 90.0084 30.4984 90.6633 30.4984 91.4009C30.4984 92.1316 30.6534 92.7865 30.9632 93.3656C31.28 93.9446 31.7104 94.3996 32.2544 94.7305C32.7984 95.0614 33.4182 95.2268 34.1137 95.2268Z" fill="white"/>
<path d="M41.02 96.5711V86.2307H42.559L42.6623 87.8542C43.0067 87.3027 43.4508 86.8615 43.9948 86.5306C44.5389 86.1928 45.1896 86.0239 45.9471 86.0239C46.257 86.0239 46.5806 86.0549 46.9181 86.117L46.6702 87.6991C46.3327 87.6163 46.016 87.575 45.7198 87.575C44.7695 87.575 44.0327 87.9265 43.5094 88.6297C42.986 89.3259 42.7243 90.1911 42.7243 91.2251V96.5711H41.02Z" fill="white"/>
<path d="M46.9036 91.4009C46.9036 90.3669 47.1343 89.4466 47.5957 88.64C48.0639 87.8266 48.7009 87.1889 49.5066 86.7271C50.3192 86.2583 51.242 86.0239 52.2749 86.0239C53.3078 86.0239 54.2272 86.2583 55.0329 86.7271C55.8454 87.1889 56.4824 87.8266 56.9438 88.64C57.4121 89.4466 57.6462 90.3669 57.6462 91.4009C57.6462 92.4349 57.4121 93.3587 56.9438 94.1721C56.4824 94.9787 55.8454 95.6163 55.0329 96.0851C54.2272 96.547 53.3078 96.7779 52.2749 96.7779C51.242 96.7779 50.3192 96.547 49.5066 96.0851C48.7009 95.6163 48.0639 94.9787 47.5957 94.1721C47.1343 93.3587 46.9036 92.4349 46.9036 91.4009ZM48.6596 91.4009C48.6596 92.1316 48.8145 92.7865 49.1244 93.3656C49.4412 93.9446 49.8716 94.3996 50.4156 94.7305C50.9596 95.0614 51.5794 95.2268 52.2749 95.2268C52.9704 95.2268 53.5902 95.0614 54.1342 94.7305C54.6782 94.3996 55.1052 93.9446 55.415 93.3656C55.7318 92.7865 55.8902 92.1316 55.8902 91.4009C55.8902 90.6633 55.7318 90.0084 55.415 89.4362C55.1052 88.8572 54.6782 88.4022 54.1342 88.0713C53.5902 87.7404 52.9704 87.575 52.2749 87.575C51.5794 87.575 50.9596 87.7404 50.4156 88.0713C49.8716 88.4022 49.4412 88.8572 49.1244 89.4362C48.8145 90.0084 48.6596 90.6633 48.6596 91.4009Z" fill="white"/>
<path d="M60.6686 86.2307V91.8559C60.6686 92.8554 60.9371 93.6689 61.4743 94.2962C62.0183 94.9166 62.7241 95.2268 63.5918 95.2268C64.1771 95.2268 64.7005 95.0855 65.1619 94.8029C65.6233 94.5134 65.9882 94.1239 66.2568 93.6344C66.5254 93.1381 66.6596 92.5797 66.6596 91.9593V86.2307H68.364V96.5711H66.8249L66.7319 94.9993C66.3325 95.5577 65.8333 95.9955 65.2342 96.3126C64.642 96.6228 63.9809 96.7779 63.2509 96.7779C62.4177 96.7779 61.6774 96.578 61.0301 96.1781C60.3897 95.7714 59.8835 95.213 59.5117 94.503C59.1467 93.793 58.9642 92.9795 58.9642 92.0627V86.2307H60.6686Z" fill="white"/>
<path d="M75.105 86.0239C75.8625 86.0239 76.5649 86.1618 77.2122 86.4375C77.8595 86.7133 78.4138 87.0959 78.8752 87.5853V81.0606H80.5796V96.5711H79.0405L78.9475 95.1338C78.4861 95.6439 77.9249 96.0472 77.2638 96.3436C76.6027 96.6331 75.8831 96.7779 75.105 96.7779C74.1065 96.7779 73.2112 96.547 72.4193 96.0851C71.6343 95.6163 71.0145 94.9787 70.56 94.1721C70.1124 93.3587 69.8886 92.4349 69.8886 91.4009C69.8886 90.3669 70.1124 89.4466 70.56 88.64C71.0145 87.8266 71.6343 87.1889 72.4193 86.7271C73.2112 86.2583 74.1065 86.0239 75.105 86.0239ZM71.6446 91.4009C71.6446 92.1316 71.7996 92.7865 72.1094 93.3656C72.4262 93.9446 72.8566 94.3996 73.4006 94.7305C73.9446 95.0614 74.5644 95.2268 75.2599 95.2268C75.9554 95.2268 76.5752 95.0614 77.1192 94.7305C77.6632 94.3996 78.0902 93.9446 78.4001 93.3656C78.7168 92.7865 78.8752 92.1316 78.8752 91.4009C78.8752 90.6633 78.7168 90.0084 78.4001 89.4362C78.0902 88.8572 77.6632 88.4022 77.1192 88.0713C76.5752 87.7404 75.9554 87.575 75.2599 87.575C74.5644 87.575 73.9446 87.7404 73.4006 88.0713C72.8566 88.4022 72.4262 88.8572 72.1094 89.4362C71.7996 90.0084 71.6446 90.6633 71.6446 91.4009Z" fill="white"/>
<path d="M91.3387 95.2475C90.8566 95.7301 90.2885 96.1058 89.6343 96.3746C88.9801 96.6435 88.264 96.7779 87.4858 96.7779C86.4529 96.7779 85.5301 96.547 84.7175 96.0851C83.9118 95.6163 83.2749 94.9787 82.8066 94.1721C82.3452 93.3587 82.1145 92.4349 82.1145 91.4009C82.1145 90.3669 82.3452 89.4466 82.8066 88.64C83.2749 87.8266 83.9118 87.1889 84.7175 86.7271C85.5301 86.2583 86.4529 86.0239 87.4858 86.0239C88.264 86.0239 88.9801 86.1583 89.6343 86.4272C90.2885 86.696 90.8566 87.0683 91.3387 87.544L90.1508 88.7331C89.8271 88.3677 89.4381 88.0851 88.9836 87.8852C88.5291 87.6784 88.0298 87.575 87.4858 87.575C86.7903 87.575 86.1705 87.7404 85.6265 88.0713C85.0825 88.4022 84.6521 88.8572 84.3353 89.4362C84.0255 90.0084 83.8705 90.6633 83.8705 91.4009C83.8705 92.1316 84.0255 92.7865 84.3353 93.3656C84.6521 93.9446 85.0825 94.3996 85.6265 94.7305C86.1705 95.0614 86.7903 95.2268 87.4858 95.2268C88.0298 95.2268 88.5291 95.1234 88.9836 94.9166C89.4381 94.7098 89.8271 94.4272 90.1508 94.0687L91.3387 95.2475Z" fill="white"/>
<path d="M94.6296 80.6469V96.5711H92.8736V80.6469H94.6296Z" fill="white"/>
<path d="M96.1543 91.4009C96.1543 90.3669 96.3849 89.4466 96.8463 88.64C97.3146 87.8266 97.9516 87.1889 98.7573 86.7271C99.5699 86.2583 100.493 86.0239 101.526 86.0239C102.558 86.0239 103.478 86.2583 104.284 86.7271C105.096 87.1889 105.733 87.8266 106.194 88.64C106.663 89.4466 106.897 90.3669 106.897 91.4009C106.897 92.4349 106.663 93.3587 106.194 94.1721C105.733 94.9787 105.096 95.6163 104.284 96.0851C103.478 96.547 102.558 96.7779 101.526 96.7779C100.493 96.7779 99.5699 96.547 98.7573 96.0851C97.9516 95.6163 97.3146 94.9787 96.8463 94.1721C96.3849 93.3587 96.1543 92.4349 96.1543 91.4009ZM97.9103 91.4009C97.9103 92.1316 98.0652 92.7865 98.3751 93.3656C98.6918 93.9446 99.1222 94.3996 99.6663 94.7305C100.21 95.0614 100.83 95.2268 101.526 95.2268C102.221 95.2268 102.841 95.0614 103.385 94.7305C103.929 94.3996 104.356 93.9446 104.666 93.3656C104.982 92.7865 105.141 92.1316 105.141 91.4009C105.141 90.6633 104.982 90.0084 104.666 89.4362C104.356 88.8572 103.929 88.4022 103.385 88.0713C102.841 87.7404 102.221 87.575 101.526 87.575C100.83 87.575 100.21 87.7404 99.6663 88.0713C99.1222 88.4022 98.6918 88.8572 98.3751 89.4362C98.0652 90.0084 97.9103 90.6633 97.9103 91.4009Z" fill="white"/>
<path d="M109.919 86.2307V91.8559C109.919 92.8554 110.188 93.6689 110.725 94.2962C111.269 94.9166 111.975 95.2268 112.842 95.2268C113.428 95.2268 113.951 95.0855 114.413 94.8029C114.874 94.5134 115.239 94.1239 115.507 93.6344C115.776 93.1381 115.91 92.5797 115.91 91.9593V86.2307H117.615V96.5711H116.076L115.983 94.9993C115.583 95.5577 115.084 95.9955 114.485 96.3126C113.893 96.6228 113.232 96.7779 112.502 96.7779C111.668 96.7779 110.928 96.578 110.281 96.1781C109.64 95.7714 109.134 95.213 108.762 94.503C108.397 93.793 108.215 92.9795 108.215 92.0627V86.2307H109.919Z" fill="white"/>
<path d="M124.356 86.0239C125.113 86.0239 125.816 86.1618 126.463 86.4375C127.11 86.7133 127.664 87.0959 128.126 87.5853V81.0606H129.83V96.5711H128.291L128.198 95.1338C127.737 95.6439 127.176 96.0472 126.514 96.3436C125.853 96.6331 125.134 96.7779 124.356 96.7779C123.357 96.7779 122.462 96.547 121.67 96.0851C120.885 95.6163 120.265 94.9787 119.811 94.1721C119.363 93.3587 119.139 92.4349 119.139 91.4009C119.139 90.3669 119.363 89.4466 119.811 88.64C120.265 87.8266 120.885 87.1889 121.67 86.7271C122.462 86.2583 123.357 86.0239 124.356 86.0239ZM120.895 91.4009C120.895 92.1316 121.05 92.7865 121.36 93.3656C121.677 93.9446 122.107 94.3996 122.651 94.7305C123.195 95.0614 123.815 95.2268 124.511 95.2268C125.206 95.2268 125.826 95.0614 126.37 94.7305C126.914 94.3996 127.341 93.9446 127.651 93.3656C127.967 92.7865 128.126 92.1316 128.126 91.4009C128.126 90.6633 127.967 90.0084 127.651 89.4362C127.341 88.8572 126.914 88.4022 126.37 88.0713C125.826 87.7404 125.206 87.575 124.511 87.575C123.815 87.575 123.195 87.7404 122.651 88.0713C122.107 88.4022 121.677 88.8572 121.36 89.4362C121.05 90.0084 120.895 90.6633 120.895 91.4009Z" fill="white"/>
<g clip-path="url(#clip0)">
<path d="M97.5469 57.0518C97.4987 63.5578 92.2002 68.7976 85.7011 68.7631C84.8516 68.7631 84.2593 67.922 84.5417 67.1199C85.7447 63.7187 86.3232 60.1037 86.2382 56.491C86.2268 55.9877 85.6391 56.059 85.5725 56.3531L84.5142 61.501C84.4384 61.8687 84.0964 62.1284 83.7222 62.0824C83.348 62.0456 83.0633 61.7308 83.0633 61.3539L83.0472 54.3032C83.0472 54.0918 82.8727 53.9194 82.6615 53.9194C82.4664 53.9194 82.3034 54.0665 82.2805 54.2595L81.5504 60.5243C81.5068 60.8966 81.1946 61.1746 80.8227 61.1746C80.8204 61.1746 80.8204 61.1746 80.8181 61.1746C80.4439 61.1723 80.1317 60.8874 80.0926 60.5151L79.3442 53.2116C79.3121 52.8898 78.7542 52.8944 78.7267 53.2162L78.1757 59.6579C78.1459 60.0095 77.8681 60.2898 77.5169 60.3243C77.1702 60.3703 76.8396 60.1405 76.7409 59.8003L75.3015 54.8938C75.2579 54.7421 75.1156 54.6456 74.9571 54.664C74.7804 54.6824 74.6564 54.8341 74.6702 55.011L75.2189 61.7193C75.2464 62.0387 75.0605 62.3398 74.762 62.4593C74.4636 62.5788 74.1215 62.4915 73.9195 62.241L72.6591 60.6851C72.4112 60.3795 71.9727 60.3082 71.6399 60.5243C71.3024 60.7403 71.1899 61.1746 71.3736 61.5308L73.7037 67.051C74.0458 67.8645 73.4512 68.7631 72.5696 68.7631H68.9148C63.9837 68.7838 59.9685 64.8034 59.9386 59.867C59.9317 57.4999 60.8891 55.2316 62.5902 53.5862C63.7931 52.3888 65.3129 51.5638 66.9681 51.2076C67.2413 48.9784 68.256 46.9055 69.8538 45.329C73.8254 41.4451 80.1661 41.4405 84.1446 45.3175L84.2616 45.4347C89.1974 44.7705 94.0115 47.3077 96.259 51.7546C97.1107 53.3908 97.5515 55.2087 97.5469 57.0518Z" fill="white"/>
</g>
<defs>
<clipPath id="clip0">
<rect width="37.6083" height="26.3505" fill="white" transform="translate(59.9388 42.4117)"/>
</clipPath>
</defs>
</svg>
