<svg width="56" height="56" viewBox="0 0 56 56" fill="none" xmlns="http://www.w3.org/2000/svg">
<g clip-path="url(#clip0)">
<path d="M51.84 40.1001V40.1001C51.1797 33.2649 47.6231 27.0399 42.07 23.0001V21.8001V21.8003C42.0383 12.5286 36.7034 4.09288 28.3401 0.0901785V0.0901785C28.0765 -0.0300595 27.7737 -0.0300595 27.5101 0.0901784L27.5101 0.0901794C19.1436 4.09431 13.8079 12.5348 13.78 21.8101V23.0001H13.78C8.22318 27.0379 4.66276 33.2632 4.00004 40.1001H4.00004C3.97961 40.3704 4.06983 40.6375 4.25004 40.8401H4.25004C4.43613 41.0408 4.69636 41.1564 4.97004 41.1601H13.97L14.7 43.7001C15.4221 46.1845 17.6928 47.8977 20.28 47.9101H21.83V47.9101C23.0715 50.8671 24.9099 53.536 27.23 55.7501C27.4097 55.9086 27.6404 55.9973 27.88 56.0001C28.1209 56.0041 28.3539 55.9145 28.53 55.7501L28.53 55.7501C30.8787 53.5456 32.7418 50.8754 34 47.9101H35.56C38.1346 47.8867 40.3879 46.1743 41.1 43.7001L41.83 41.1601H51C51.2298 41.1437 51.4445 41.04 51.6 40.8701C51.7943 40.664 51.8828 40.38 51.84 40.1001L51.84 40.1001ZM13.78 25.4601V39.2301H6.05003C6.83839 33.8432 9.59177 28.9384 13.78 25.4601V25.4601ZM27.92 53.6901V53.6901C26.3089 51.9885 24.985 50.0364 24 47.9101H31.82H31.82C30.8448 50.037 29.5273 51.9896 27.92 53.6901ZM39.25 43.1701C38.7724 44.8324 37.2595 45.9833 35.53 46.0001H20.32C18.5939 45.9925 17.0792 44.8484 16.6 43.1901L15.71 40.0701V21.8101V21.8098C15.7182 13.4321 20.4398 5.77192 27.9203 2.00002L27.9203 2.00002C35.4062 5.76758 40.1325 13.4296 40.14 21.8101V40.0501L39.25 43.1701ZM42.07 39.2301V25.4601C46.2523 28.9419 49.0015 33.8456 49.79 39.2301H42.07Z" fill="#3097F5"/>
<path d="M27.91 36.27C31.6435 36.27 34.67 33.2435 34.67 29.51C34.67 25.7766 31.6435 22.75 27.91 22.75C24.1766 22.75 21.15 25.7766 21.15 29.51V29.51C21.15 33.2434 24.1766 36.27 27.91 36.27ZM27.91 24.68C30.5776 24.6745 32.7445 26.8325 32.75 29.5C32.7555 32.1675 30.5976 34.3345 27.93 34.34C25.2625 34.3455 23.0956 32.1875 23.09 29.52C23.09 29.5167 23.09 29.5133 23.09 29.51V29.51C23.09 26.8464 25.2464 24.6855 27.91 24.68H27.91Z" fill="#ADD8FF"/>
<path d="M27.91 18.7501C30.5775 18.7556 32.7444 16.5976 32.75 13.9301C32.7555 11.2625 30.5975 9.09562 27.93 9.0901C25.2624 9.08458 23.0955 11.2426 23.09 13.9101C23.09 13.9168 23.09 13.9234 23.09 13.9301C23.09 16.5921 25.248 18.7501 27.91 18.7501ZM27.91 11.0301C29.5116 11.0356 30.8055 12.3384 30.8 13.9401C30.7944 15.5417 29.4916 16.8356 27.89 16.83C26.2923 16.8245 25 15.5278 25 13.9301V13.9301C24.9834 12.3285 26.2683 11.0168 27.8698 11.0002C27.8832 11.0001 27.8966 11 27.91 11.0001L27.91 11.0301Z" fill="#ADD8FF"/>
<path d="M7.45999 45.0001C6.90771 45.0001 6.45999 45.4478 6.45999 46.0001V48.7001C6.31516 49.2331 6.62979 49.7825 7.16274 49.9274C7.6957 50.0722 8.24515 49.7576 8.38999 49.2246C8.43666 49.0529 8.43666 48.8718 8.38999 48.7001V46.0001V46.0001C8.39128 45.474 7.98476 45.0369 7.45998 45.0001H7.45999Z" fill="#ADD8FF"/>
<path d="M12.36 47.6901C11.8077 47.6901 11.36 48.1378 11.36 48.6901V51.2901C11.4942 51.8258 12.0374 52.1512 12.5731 52.017C12.9309 51.9273 13.2103 51.6479 13.3 51.2901V48.6901V48.6901C13.3009 48.1604 12.8887 47.7218 12.36 47.6901H12.36Z" fill="#ADD8FF"/>
<path d="M48.9 45.0001C48.3477 45.0001 47.9 45.4478 47.9 46.0001V48.7001C47.7552 49.2331 48.0698 49.7825 48.6027 49.9274C49.1357 50.0722 49.6852 49.7576 49.83 49.2246C49.8767 49.0529 49.8767 48.8718 49.83 48.7001V46.0001V46.0001C49.8313 45.474 49.4248 45.0369 48.9 45.0001H48.9Z" fill="#ADD8FF"/>
<path d="M44 47.6901C43.4477 47.6901 43 48.1378 43 48.6901V51.2901C42.8551 51.823 43.1698 52.3725 43.7027 52.5173C44.2357 52.6622 44.7851 52.3475 44.93 51.8146C44.9766 51.6428 44.9766 51.4618 44.93 51.2901V48.6901V48.6901C44.9313 48.164 44.5247 47.7269 44 47.6901H44Z" fill="#ADD8FF"/>
<path d="M35.64 39.2301H20.19C19.657 39.0852 19.1076 39.3999 18.9627 39.9328C18.8179 40.4658 19.1325 41.0152 19.6655 41.1601C19.8372 41.2067 20.0183 41.2067 20.19 41.1601H35.64C36.1729 41.0152 36.4876 40.4658 36.3427 39.9328C36.2497 39.5905 35.9823 39.3231 35.64 39.2301Z" fill="#ADD8FF"/>
</g>
<defs>
<clipPath id="clip0">
<rect width="47.85" height="56" fill="white" transform="translate(4)"/>
</clipPath>
</defs>
</svg>
