<svg width="56" height="56" viewBox="0 0 56 56" fill="none" xmlns="http://www.w3.org/2000/svg">
<path d="M28 10C18.07 10 10 18.07 10 28C10 37.92 18.07 46 28 46C37.93 46 46 37.93 46 28C46 18.08 37.92 10 28 10ZM28 44C19.18 44 12 36.82 12 28C12 19.18 19.18 12 28 12C36.82 12 44 19.18 44 28C44 36.82 36.82 44 28 44Z" fill="#3097F5"/>
<path d="M28 8.75C28.55 8.75 29 8.3 29 7.75V3.93H38.5C38.91 5.05 39.98 5.86 41.24 5.86C42.85 5.86 44.17 4.55 44.17 2.93C44.17 1.31 42.86 0 41.24 0C39.98 0 38.91 0.81 38.5 1.93H28C27.45 1.93 27 2.38 27 2.93V7.75C27 8.3 27.45 8.75 28 8.75ZM41.24 2C41.75 2 42.17 2.42 42.17 2.93C42.17 3.44 41.75 3.86 41.24 3.86C40.73 3.86 40.31 3.44 40.31 2.93C40.32 2.42 40.73 2 41.24 2Z" fill="#3097F5"/>
<path d="M54.07 38.5V28C54.07 27.45 53.62 27 53.07 27H48.25C47.7 27 47.25 27.45 47.25 28C47.25 28.55 47.7 29 48.25 29H52.07V38.5C50.95 38.91 50.14 39.98 50.14 41.24C50.14 42.85 51.45 44.17 53.07 44.17C54.68 44.17 56 42.86 56 41.24C56 39.98 55.19 38.92 54.07 38.5ZM53.07 42.17C52.56 42.17 52.14 41.75 52.14 41.24C52.14 40.73 52.56 40.31 53.07 40.31C53.58 40.31 54 40.73 54 41.24C54 41.76 53.58 42.17 53.07 42.17Z" fill="#3097F5"/>
<path d="M28 47.25C27.45 47.25 27 47.7 27 48.25V52.07H17.5C17.09 50.95 16.02 50.14 14.76 50.14C13.15 50.14 11.83 51.45 11.83 53.07C11.83 54.69 13.14 56 14.75 56C16.01 56 17.08 55.19 17.49 54.07H28C28.55 54.07 29 53.62 29 53.07V48.25C29 47.7 28.55 47.25 28 47.25ZM14.75 54C14.24 54 13.82 53.58 13.82 53.07C13.82 52.56 14.24 52.14 14.75 52.14C15.26 52.14 15.68 52.56 15.68 53.07C15.68 53.58 15.27 54 14.75 54Z" fill="#3097F5"/>
<path d="M7.75 27H3.93V17.5C5.05 17.09 5.86 16.02 5.86 14.76C5.86 13.15 4.55 11.83 2.93 11.83C1.31 11.83 0 13.14 0 14.75C0 16.01 0.81 17.08 1.93 17.49V28C1.93 28.55 2.38 29 2.93 29H7.75C8.3 29 8.75 28.55 8.75 28C8.75 27.45 8.3 27 7.75 27ZM2.93 15.68C2.42 15.68 2 15.27 2 14.75C2 14.24 2.42 13.82 2.93 13.82C3.44 13.82 3.86 14.24 3.86 14.75C3.86 15.27 3.44 15.68 2.93 15.68Z" fill="#3097F5"/>
<path d="M22.21 8.75002C22.76 8.75002 23.21 8.30002 23.21 7.75002V1.96002C23.21 1.41002 22.76 0.960022 22.21 0.960022C21.66 0.960022 21.21 1.41002 21.21 1.96002V7.75002C21.21 8.30002 21.66 8.75002 22.21 8.75002Z" fill="#ADD8FF"/>
<path d="M33 6.75V7.75C33 8.3 33.45 8.75 34 8.75C34.55 8.75 35 8.3 35 7.75V6.75C35 6.2 34.55 5.75 34 5.75C33.45 5.75 33 6.2 33 6.75Z" fill="#3097F5"/>
<path d="M23.34 49.25V48.25C23.34 47.7 22.89 47.25 22.34 47.25C21.79 47.25 21.34 47.7 21.34 48.25V49.25C21.34 49.8 21.79 50.25 22.34 50.25C22.89 50.25 23.34 49.8 23.34 49.25Z" fill="#3097F5"/>
<path d="M33.78 47.25C33.23 47.25 32.78 47.7 32.78 48.25V54.04C32.78 54.59 33.23 55.04 33.78 55.04C34.33 55.04 34.78 54.59 34.78 54.04V48.25C34.78 47.7 34.34 47.25 33.78 47.25Z" fill="#ADD8FF"/>
<path d="M7.75002 32.79H1.96002C1.41002 32.79 0.960022 33.24 0.960022 33.79C0.960022 34.34 1.41002 34.79 1.96002 34.79H7.75002C8.30002 34.79 8.75002 34.34 8.75002 33.79C8.75002 33.24 8.30002 32.79 7.75002 32.79Z" fill="#ADD8FF"/>
<path d="M48.25 23.21H54.04C54.59 23.21 55.04 22.76 55.04 22.21C55.04 21.66 54.59 21.21 54.04 21.21H48.25C47.7 21.21 47.25 21.66 47.25 22.21C47.25 22.77 47.7 23.21 48.25 23.21Z" fill="#ADD8FF"/>
<path d="M7.91998 21.17H6.91998C6.36998 21.17 5.91998 21.62 5.91998 22.17C5.91998 22.72 6.36998 23.17 6.91998 23.17H7.91998C8.46998 23.17 8.91998 22.72 8.91998 22.17C8.91998 21.62 8.46998 21.17 7.91998 21.17Z" fill="#3097F5"/>
<path d="M49.42 32.83H48.42C47.87 32.83 47.42 33.28 47.42 33.83C47.42 34.38 47.87 34.83 48.42 34.83H49.42C49.97 34.83 50.42 34.38 50.42 33.83C50.42 33.28 49.97 32.83 49.42 32.83Z" fill="#3097F5"/>
<path d="M35.63 23.5H33.81V23.26C33.81 20.05 31.2 17.43 27.98 17.43C24.77 17.43 22.15 20.04 22.15 23.26V23.5H20.49C19.96 23.5 19.46 23.72 19.11 24.11C18.76 24.5 18.58 25.02 18.64 25.55L19.09 30.04C19.55 34.67 23.41 38.16 28.07 38.16C32.73 38.16 36.58 34.67 37.05 30.04L37.5 25.55C37.55 25.03 37.38 24.5 37.03 24.11C36.66 23.72 36.16 23.5 35.63 23.5ZM24.15 23.26C24.15 21.15 25.87 19.43 27.98 19.43C30.09 19.43 31.81 21.15 31.81 23.26V23.5H24.15V23.26ZM35.05 29.84C34.69 33.44 31.69 36.16 28.06 36.16C24.43 36.16 21.43 33.44 21.07 29.84L20.63 25.5H35.47L35.05 29.84Z" fill="#ADD8FF"/>
<path d="M27.06 31.11V32.83C27.06 33.38 27.51 33.83 28.06 33.83C28.61 33.83 29.06 33.38 29.06 32.83V31.11C29.66 30.76 30.06 30.13 30.06 29.39C30.06 28.29 29.16 27.39 28.06 27.39C26.96 27.39 26.06 28.29 26.06 29.39C26.06 30.13 26.47 30.76 27.06 31.11Z" fill="#3097F5"/>
</svg>
