<svg width="159" height="143" viewBox="0 0 159 143" fill="none" xmlns="http://www.w3.org/2000/svg">
<rect x="0.0515137" width="158.66" height="142.353" rx="10" fill="#27AE60"/>
<g clip-path="url(#clip0)">
<path d="M54.768 71.3648C54.0996 70.8368 53.3694 70.3815 52.5836 70.0032C51.7935 69.6227 51.0163 69.2743 50.2476 68.9536C50.1088 68.8959 49.9743 68.8382 49.8398 68.7805C49.2568 68.5304 48.7123 68.2846 48.2063 68.0409C47.5828 67.7417 47.081 67.4018 46.703 67.0213C46.323 66.643 46.1329 66.1877 46.1329 65.6597C46.1329 65.0398 46.3998 64.5439 46.9336 64.1677C47.4675 63.7936 48.1785 63.6076 49.0668 63.6076C49.654 63.6076 50.3928 63.7167 51.2811 63.9368C51.9046 64.0907 52.5473 64.343 53.2135 64.6935L55.9637 61.3611C53.7601 60.1619 51.4562 59.5634 49.0518 59.5634C47.5443 59.5634 46.2226 59.8221 45.0866 60.3415C43.9485 60.8609 43.0667 61.5877 42.4389 62.5218C41.809 63.4559 41.4951 64.546 41.4951 65.7944C41.4951 66.8033 41.6894 67.6668 42.078 68.3851C42.4688 69.1033 42.9812 69.7189 43.6197 70.2276C44.2581 70.7364 44.9585 71.1788 45.7229 71.5529C46.1628 71.7688 46.6005 71.9761 47.0404 72.1728C47.3607 72.3181 47.6831 72.4592 48.0034 72.5939C48.7721 72.9145 49.4853 73.2416 50.143 73.575C50.8028 73.9106 51.3323 74.2868 51.738 74.7058C52.1416 75.1247 52.3423 75.6356 52.3423 76.2341C52.3423 76.9823 52.0306 77.6128 51.4071 78.1216C50.7836 78.6303 50.0149 78.8847 49.0967 78.8847C48.4283 78.8847 47.7066 78.7757 46.9336 78.5555C46.1607 78.3353 45.4112 78.0318 44.6831 77.6428C44.1706 77.367 43.6987 77.0678 43.2695 76.7428L40.5983 79.9791C41.8047 80.9175 43.135 81.6442 44.5934 82.1572C46.0496 82.6724 47.4995 82.9289 48.9472 82.9289C50.5124 82.9289 51.8982 82.6318 53.1067 82.0375C54.3132 81.4433 55.2612 80.6246 55.9488 79.5815C56.6364 78.5384 56.9823 77.3414 56.9823 75.9947C56.9823 74.9366 56.7794 74.0324 56.3759 73.2822C55.9723 72.534 55.4342 71.8949 54.768 71.3648Z" fill="white"/>
<path d="M64.5814 59.412H60.2724V82.4782H64.5814V59.412Z" fill="white"/>
<path d="M111.865 74.2254L117.609 67.5007H112.897L109.995 70.8545C109.566 71.3547 109.171 71.8271 108.812 72.2696C108.453 72.7142 108.124 73.1716 107.825 73.6419V60.0108H103.514V82.4785H107.825V78.943L109.126 77.4146L113.405 82.4785H118.688L111.865 74.2254Z" fill="white"/>
<path d="M75.288 67.1987C71.3484 67.1987 68.0879 70.0972 67.5135 73.8807C67.4558 74.2697 67.4259 74.6673 67.4259 75.0713C67.4259 75.4817 67.4579 75.8836 67.5156 76.2769C68.0964 80.0518 71.3548 82.9417 75.288 82.9417C78.6127 82.9417 81.4547 80.8769 82.6056 77.9591H78.4162C77.639 78.8035 76.5244 79.3314 75.288 79.3314C73.3556 79.3314 71.7221 78.0425 71.2054 76.2769H83.0605C83.1181 75.8836 83.1501 75.4817 83.1501 75.0713C83.1501 74.6673 83.1202 74.2697 83.0626 73.8807C82.4882 70.0972 79.2276 67.1987 75.288 67.1987ZM71.2011 73.8807C71.7136 72.1065 73.3492 70.809 75.288 70.809C77.2269 70.809 78.8625 72.1065 79.375 73.8807H71.2011Z" fill="white"/>
<path d="M92.8099 67.1987C88.8703 67.1987 85.6098 70.0972 85.0354 73.8807C84.9777 74.2697 84.9478 74.6673 84.9478 75.0713C84.9478 75.4817 84.9799 75.8836 85.0375 76.2769H96.8926C96.3759 78.0425 94.7424 79.3314 92.8099 79.3314C91.5736 79.3314 90.459 78.8035 89.6818 77.9591H85.4923C86.6432 80.8769 89.4853 82.9417 92.8099 82.9417C96.7431 82.9417 100.002 80.0518 100.582 76.2769C100.64 75.8836 100.672 75.4817 100.672 75.0713C100.672 74.6673 100.642 74.2697 100.585 73.8807C100.01 70.0972 96.7495 67.1987 92.8099 67.1987ZM88.723 73.8807C89.2355 72.1065 90.8711 70.809 92.8099 70.809C94.7488 70.809 96.3844 72.1065 96.8969 73.8807H88.723Z" fill="white"/>
</g>
<defs>
<clipPath id="clip0">
<rect width="78.0893" height="23.5301" fill="white" transform="translate(40.5983 59.412)"/>
</clipPath>
</defs>
</svg>
