<svg width="56" height="56" viewBox="0 0 56 56" fill="none" xmlns="http://www.w3.org/2000/svg">
<g clip-path="url(#clip0)">
<path d="M34.82 16.9399C28.7092 13.1708 20.6999 15.0691 16.9308 21.1799C13.1617 27.2907 15.06 35.3 21.1708 39.0691C27.2816 42.8382 35.2909 40.9399 39.06 34.8291C41.6406 30.6453 41.6406 25.3638 39.06 21.1799L37.6 22.6399V22.6399C38.5209 24.276 39.0032 26.1224 39 27.9999V27.9999C39 34.075 34.0751 38.9999 28 38.9999C21.9249 38.9999 17 34.075 17 27.9999C17 21.9248 21.9249 16.9999 28 16.9999C29.8775 16.9967 31.7239 17.479 33.36 18.3999L34.82 16.9399Z" fill="#3097F5"/>
<path d="M28.7 23.06C28.4689 23.0195 28.2346 22.9994 28 23C25.2386 23 23 25.2386 23 28C23 30.7614 25.2386 33 28 33C30.7614 33 33 30.7614 33 28V28C33.0006 27.7653 32.9805 27.5311 32.94 27.3L30.12 30.12C29.6951 30.547 29.1515 30.8362 28.56 30.95C28.1896 31.0167 27.8103 31.0167 27.44 30.95C26.8485 30.8362 26.3049 30.547 25.88 30.12C24.7102 28.9487 24.7102 27.0512 25.88 25.88L28.7 23.06Z" fill="#ADD8FF"/>
<path d="M27.29 28.71C27.6789 29.1022 28.3121 29.1047 28.7042 28.7158C28.7061 28.7139 28.7081 28.712 28.71 28.71L48.5 8.92003L51.73 8.27003C51.9228 8.2321 52.1002 8.13819 52.24 8.00003L54.36 5.88003C54.7566 5.49568 54.7665 4.86259 54.3822 4.46599C54.2754 4.35576 54.1446 4.2716 54 4.22003L52.36 3.67003L51.78 2.00003C51.6067 1.47563 51.0412 1.19097 50.5168 1.36423C50.367 1.41372 50.231 1.49795 50.12 1.61003L48 3.76003C47.8618 3.89981 47.7679 4.07719 47.73 4.27003L47.08 7.50003L27.29 27.29H27.29C26.8979 27.679 26.8953 28.3121 27.2842 28.7042C27.2861 28.7062 27.2881 28.7081 27.29 28.71H27.29ZM49.63 5.00003L50.39 4.23003L50.59 4.82003V4.82003C50.6897 5.11715 50.9229 5.35035 51.22 5.45003L51.81 5.65003L51 6.37003L49.24 6.73003L49.63 5.00003Z" fill="#3097F5"/>
<path d="M9.62 11.0001C10.0865 11.2958 10.7043 11.1574 11 10.6909C11.2072 10.364 11.2072 9.94696 11 9.6201L9.62 8.2001C9.22788 7.80798 8.59212 7.80798 8.2 8.2001C7.80788 8.59222 7.80788 9.22798 8.2 9.6201L9.62 11.0001Z" fill="#3097F5"/>
<path d="M46.38 45C46.0843 44.5335 45.4665 44.3951 45 44.6908C44.5335 44.9865 44.3951 45.6044 44.6908 46.0708C44.7698 46.1954 44.8754 46.301 45 46.38L46.41 47.8C46.8021 48.1921 47.4379 48.1921 47.83 47.8C48.2221 47.4079 48.2221 46.7721 47.83 46.38L46.38 45Z" fill="#3097F5"/>
<path d="M9.62 45L8.2 46.38C7.80788 46.7721 7.80788 47.4079 8.2 47.8C8.59212 48.1921 9.22788 48.1921 9.62 47.8L11 46.38C11.4665 46.0843 11.6049 45.4665 11.3092 45C11.0135 44.5335 10.3956 44.3951 9.92919 44.6908C9.80458 44.7698 9.69899 44.8754 9.62 45H9.62Z" fill="#3097F5"/>
<path d="M55 27H49V27C48.8016 22.8157 47.3563 18.7864 44.85 15.43L43.42 16.86V16.86C45.5726 19.8207 46.8165 23.3441 47 27H45.68C45.1277 27 44.68 27.4477 44.68 28C44.68 28.5523 45.1277 29 45.68 29H47C46.5002 38.7266 38.7266 46.5002 29 47V45.68C29 45.1277 28.5523 44.68 28 44.68C27.4477 44.68 27 45.1277 27 45.68V47C17.2929 46.4755 9.5475 38.7085 9.05 29H10.32C10.8723 29 11.32 28.5523 11.32 28C11.32 27.4477 10.8723 27 10.32 27H9.05L9.05 27C9.57215 17.311 17.311 9.5722 27 9.05V10.32C27 10.8723 27.4477 11.32 28 11.32C28.5523 11.32 29 10.8723 29 10.32V9H29C32.6559 9.18347 36.1793 10.4274 39.14 12.58L40.57 11.15L40.57 11.15C37.2136 8.64367 33.1843 7.19842 29 7V1C29 0.447715 28.5523 0 28 0C27.4477 0 27 0.447715 27 1V7.05H27C16.2079 7.57737 7.5774 16.2079 7.05 27H1C0.447715 27 0 27.4477 0 28C2.41411e-08 28.5523 0.447715 29 1 29H7.05L7.05 29C7.55242 39.8116 16.1897 48.4705 27 49V55C27 55.5523 27.4477 56 28 56C28.5523 56 29 55.5523 29 55V49H29C39.8298 48.4955 48.4955 39.8298 49 29H55C55.5523 29 56 28.5523 56 28C56 27.4477 55.5523 27 55 27L55 27Z" fill="#ADD8FF"/>
</g>
<defs>
<clipPath id="clip0">
<rect width="56" height="56" fill="white"/>
</clipPath>
</defs>
</svg>
